# xmcd
#
# Track frame offsets:
#	150
#	17025
#	35444
#	52361
#	67672
#	84540
#	101281
#	119382
#	136275
#	155117
#	170766
#	187794
#
# Disc length: 2741 seconds
#
# Revision: 1
# Processed by: cddbd v1.5.2PL0 Copyright (c) Steve Scherf et al.
# Submitted via: audiograbber 1.83.01
#
DISCID=9c0ab30c
DTITLE=J-Shin - All I got is love
DYEAR=2006
DGENRE=R&B
TTITLE0=All I got is love
TTITLE1=Send me an Email feat. T-Pain
TTITLE2=Perfection
TTITLE3=If I fall in love
TTITLE4=Better man feat. Shonie
TTITLE5=Like I used to feat. Tampa Tony
TTITLE6=Caught up
TTITLE7=Sayin´ "Oh"
TTITLE8=Let go
TTITLE9=You´re safe
TTITLE10=Grown and Sexy
TTITLE11=Streets are for me feat. Smitty
EXTD=
EXTT0=
EXTT1=
EXTT2=
EXTT3=
EXTT4=
EXTT5=
EXTT6=
EXTT7=
EXTT8=
EXTT9=
EXTT10=
EXTT11=
PLAYORDER=
